<?xml version="1.0" standalone="no"?>
<!DOCTYPE svg PUBLIC "-//W3C//DTD SVG 20010904//EN"
 "http://www.w3.org/TR/2001/REC-SVG-20010904/DTD/svg10.dtd">
<svg version="1.0" xmlns="http://www.w3.org/2000/svg"
 width="512.000000pt" height="512.000000pt" viewBox="0 0 512.000000 512.000000"
 preserveAspectRatio="xMidYMid meet">
<metadata>
Created by potrace 1.11, written by Peter Selinger 2001-2013
</metadata>
<g transform="translate(0.000000,512.000000) scale(0.100000,-0.100000)"
fill="#000000" stroke="none">
<path d="M1062 5109 c-19 -6 -53 -29 -76 -53 -53 -53 -66 -99 -66 -240 l0
-106 -367 0 c-239 0 -382 -4 -408 -11 -52 -15 -119 -82 -134 -134 -16 -57 -16
-4363 0 -4420 15 -52 82 -119 134 -134 57 -16 4773 -16 4830 0 52 15 119 82
134 134 16 57 16 4363 0 4420 -15 52 -82 119 -134 134 -26 7 -169 11 -407 11
l-368 0 0 106 c0 141 -13 187 -66 240 -54 55 -90 64 -245 64 -134 0 -175 -8
-227 -47 -59 -44 -75 -92 -80 -235 l-4 -128 -1018 0 -1018 0 -4 128 c-4 106
-8 134 -26 169 -24 46 -69 84 -121 102 -41 13 -282 13 -329 0z m268 -499 l0
-310 -105 0 -105 0 0 303 c0 167 3 307 7 310 3 4 51 7 105 7 l98 0 0 -310z
m2665 0 l0 -305 -102 -3 -103 -3 0 311 0 311 103 -3 102 -3 0 -305z m-3075
-200 c0 -128 13 -187 52 -235 53 -63 91 -75 256 -75 152 0 193 9 240 53 48 45
57 74 62 217 l5 135 1025 0 1025 0 5 -135 c5 -143 14 -172 62 -217 47 -44 88
-53 240 -53 165 0 203 12 256 75 39 48 52 107 52 236 l0 99 358 -2 357 -3 0
-410 0 -410 -2355 0 -2355 0 -3 400 c-1 220 0 406 3 412 3 10 84 13 360 13
l355 0 0 -100z m3998 -2567 l-3 -1638 -2355 0 -2355 0 -3 1638 -2 1637 2360 0
2360 0 -2 -1637z"/>
<path d="M2905 2115 c-242 -376 -443 -685 -446 -685 -4 0 -141 122 -305 271
-165 149 -304 273 -310 275 -11 5 -75 -57 -123 -117 l-20 -25 391 -353 c214
-195 396 -354 404 -355 7 0 234 342 519 783 l506 785 -83 53 c-46 29 -85 53
-88 53 -3 0 -203 -309 -445 -685z"/>
</g>
</svg>
